<svg width="241" height="175" viewBox="0 0 241 175" fill="none" xmlns="http://www.w3.org/2000/svg">
<rect x="-0.0812235" y="-0.694097" width="3.82091" height="10.9989" rx="1.91045" transform="matrix(0.79166 0.610962 -0.629213 0.777233 181.838 118.895)" stroke="white" stroke-opacity="0.9"/>
<path d="M168.2 123.74C170.52 123.66 172.6 123.88 174.44 124.4C176.28 124.92 177.84 125.76 179.12 126.92C180.4 128.08 181.38 129.54 182.06 131.3C182.74 133.06 183.06 135.14 183.02 137.54C182.98 139.7 182.58 141.6 181.82 143.24C181.06 144.88 180.02 146.26 178.7 147.38C177.42 148.46 175.94 149.28 174.26 149.84C172.62 150.4 170.88 150.68 169.04 150.68C164.64 150.68 161.26 149.48 158.9 147.08C156.58 144.64 155.42 141.24 155.42 136.88C155.42 134.76 155.72 132.9 156.32 131.3C156.96 129.7 157.84 128.36 158.96 127.28C160.12 126.16 161.48 125.32 163.04 124.76C164.6 124.16 166.32 123.82 168.2 123.74ZM188.36 162.26C189.16 162.26 189.84 162.44 190.4 162.8C191 163.12 191.3 163.68 191.3 164.48C191.3 165.24 191.14 165.82 190.82 166.22C190.5 166.58 190.04 166.84 189.44 167C189.2 167.08 188.86 167.12 188.42 167.12C187.98 167.16 187.54 167.18 187.1 167.18H185.42C184.14 167.18 182.84 167.16 181.52 167.12C180.24 167.12 178.96 167.12 177.68 167.12C176.52 167.12 175.46 167.12 174.5 167.12C173.58 167.12 172.66 167.1 171.74 167.06C170.82 167.06 169.88 167.06 168.92 167.06C168 167.06 166.98 167.06 165.86 167.06C163.42 167.06 160.74 167.06 157.82 167.06C154.9 167.06 152 167.12 149.12 167.24C148.44 167.28 147.86 167.08 147.38 166.64C146.9 166.16 146.66 165.5 146.66 164.66C146.66 164.02 146.88 163.5 147.32 163.1C147.76 162.7 148.26 162.48 148.82 162.44C149.26 162.4 149.9 162.38 150.74 162.38C151.58 162.38 152.48 162.38 153.44 162.38C154.4 162.38 155.32 162.4 156.2 162.44C157.12 162.44 157.86 162.44 158.42 162.44C158.5 161.2 158.52 159.94 158.48 158.66C158.48 157.38 158.44 156.08 158.36 154.76C158.28 153.84 158.54 153.16 159.14 152.72C159.74 152.24 160.4 152 161.12 152C161.76 152 162.34 152.24 162.86 152.72C163.38 153.16 163.66 153.74 163.7 154.46C163.7 154.94 163.7 155.52 163.7 156.2C163.74 156.84 163.76 157.52 163.76 158.24C163.76 158.96 163.76 159.7 163.76 160.46C163.76 161.18 163.76 161.86 163.76 162.5C165.04 162.54 166.56 162.56 168.32 162.56C170.12 162.56 172.04 162.56 174.08 162.56C174.08 161.24 174.06 159.92 174.02 158.6C173.98 157.28 173.96 155.94 173.96 154.58C173.92 153.66 174.18 152.96 174.74 152.48C175.3 152 175.92 151.76 176.6 151.76C177.28 151.76 177.88 151.98 178.4 152.42C178.96 152.86 179.24 153.48 179.24 154.28C179.24 155.68 179.26 157.06 179.3 158.42C179.34 159.78 179.34 161.14 179.3 162.5C180.86 162.46 182.4 162.44 183.92 162.44C185.48 162.4 186.96 162.34 188.36 162.26ZM168.44 128.3C165.92 128.5 164.04 129.36 162.8 130.88C161.56 132.36 160.94 134.36 160.94 136.88C160.94 139.88 161.6 142.16 162.92 143.72C164.24 145.24 166.28 146 169.04 146C170.28 146 171.42 145.84 172.46 145.52C173.54 145.2 174.46 144.7 175.22 144.02C175.98 143.3 176.56 142.38 176.96 141.26C177.4 140.1 177.62 138.7 177.62 137.06C177.62 134.3 176.9 132.1 175.46 130.46C174.02 128.78 171.68 128.06 168.44 128.3ZM226.552 123.44C226.552 122.6 226.792 121.96 227.272 121.52C227.752 121.08 228.372 120.86 229.132 120.86C229.772 120.86 230.392 121.1 230.992 121.58C231.632 122.06 231.912 122.7 231.832 123.5C231.832 126.82 231.832 129.82 231.832 132.5C231.832 135.14 231.852 137.82 231.892 140.54C231.932 143.54 231.952 146.62 231.952 149.78C231.952 152.94 231.952 156.02 231.952 159.02C231.952 161.5 231.952 163.96 231.952 166.4C231.952 168.84 231.912 170.9 231.832 172.58C231.792 173.38 231.472 173.98 230.872 174.38C230.272 174.78 229.692 174.98 229.132 174.98C228.372 174.98 227.752 174.72 227.272 174.2C226.832 173.68 226.612 173.12 226.612 172.52L226.552 123.44ZM196.192 157.34C196.192 155.14 196.192 153.28 196.192 151.76C196.192 150.2 196.192 148.9 196.192 147.86C196.192 146.82 196.172 146 196.132 145.4C196.132 144.8 196.132 144.32 196.132 143.96C196.132 142.88 196.372 141.98 196.852 141.26C197.372 140.5 198.152 140.12 199.192 140.12C199.992 140.12 200.932 140.12 202.012 140.12C203.132 140.12 204.252 140.12 205.372 140.12C206.532 140.12 207.632 140.12 208.672 140.12C209.752 140.12 210.632 140.1 211.312 140.06V137.78C211.312 136.62 211.312 135.36 211.312 134C211.352 132.64 211.372 131.18 211.372 129.62C211.372 129.42 211.312 129.3 211.192 129.26C211.112 129.22 210.992 129.2 210.832 129.2C210.272 129.24 209.792 129.28 209.392 129.32C209.032 129.36 208.612 129.4 208.132 129.44C207.692 129.44 207.172 129.44 206.572 129.44C205.972 129.44 205.192 129.44 204.232 129.44H201.172C200.652 129.44 200.112 129.44 199.552 129.44C198.992 129.44 198.532 129.42 198.172 129.38C197.372 129.3 196.752 129.02 196.312 128.54C195.912 128.02 195.752 127.48 195.832 126.92C195.912 126.24 196.192 125.66 196.672 125.18C197.152 124.7 197.832 124.46 198.712 124.46C199.352 124.46 199.852 124.48 200.212 124.52C200.612 124.52 201.032 124.52 201.472 124.52H205.852C207.732 124.52 209.192 124.5 210.232 124.46C211.272 124.42 212.212 124.36 213.052 124.28C213.852 124.24 214.492 124.28 214.972 124.4C215.452 124.48 215.812 124.66 216.052 124.94C216.332 125.18 216.512 125.54 216.592 126.02C216.672 126.46 216.732 127 216.772 127.64V141.68C216.812 142.64 216.692 143.42 216.412 144.02C216.172 144.58 215.352 144.9 213.952 144.98C213.512 145.02 212.852 145.06 211.972 145.1C211.132 145.1 210.172 145.12 209.092 145.16C208.012 145.16 206.832 145.18 205.552 145.22C204.272 145.22 202.992 145.22 201.712 145.22V156.14C201.712 156.66 201.972 156.92 202.492 156.92H204.472C206.192 156.92 207.852 156.9 209.452 156.86C211.092 156.82 212.592 156.72 213.952 156.56C214.952 156.44 215.912 156.32 216.832 156.2C217.752 156.04 218.372 155.92 218.692 155.84C219.772 155.56 220.612 155.64 221.212 156.08C221.812 156.48 222.112 157.04 222.112 157.76C222.112 158.2 221.952 158.66 221.632 159.14C221.312 159.62 220.852 159.98 220.252 160.22C220.132 160.26 219.872 160.32 219.472 160.4C219.112 160.48 218.672 160.58 218.152 160.7C217.632 160.78 217.072 160.86 216.472 160.94C215.872 161.02 215.292 161.08 214.732 161.12C213.332 161.2 212.092 161.28 211.012 161.36C209.932 161.4 208.952 161.44 208.072 161.48C207.192 161.52 206.392 161.56 205.672 161.6C204.992 161.6 204.332 161.6 203.692 161.6C203.132 161.6 202.572 161.6 202.012 161.6C201.452 161.6 200.892 161.58 200.332 161.54C198.572 161.46 197.432 161.04 196.912 160.28C196.432 159.48 196.192 158.5 196.192 157.34Z" fill="white" fill-opacity="0.9"/>
<path d="M32.34 170.28C32.34 166.96 32.34 163.52 32.34 159.96C32.34 156.4 32.32 152.9 32.28 149.46C32.28 146.02 32.26 142.74 32.22 139.62C32.22 136.46 32.2 133.64 32.16 131.16C32.16 128.68 32.14 126.62 32.1 124.98C32.1 123.34 32.08 122.28 32.04 121.8C32 120.96 32.22 120.32 32.7 119.88C33.22 119.4 33.82 119.12 34.5 119.04C35.54 118.96 36.3 119.16 36.78 119.64C37.26 120.12 37.5 120.72 37.5 121.44C37.5 122.68 37.5 123.58 37.5 124.14C37.54 124.7 37.56 125.2 37.56 125.64C37.6 127.48 37.62 129.46 37.62 131.58C37.62 133.66 37.62 135.68 37.62 137.64H40.56C41.24 137.64 41.92 137.64 42.6 137.64C43.32 137.64 44.06 137.62 44.82 137.58C45.7 137.54 46.36 137.76 46.8 138.24C47.28 138.68 47.54 139.2 47.58 139.8C47.66 140.48 47.46 141.1 46.98 141.66C46.54 142.22 45.82 142.48 44.82 142.44C43.7 142.48 42.58 142.5 41.46 142.5C40.34 142.5 39.08 142.5 37.68 142.5C37.68 144.38 37.68 146.38 37.68 148.5C37.68 150.62 37.68 152.76 37.68 154.92C37.68 157.08 37.68 159.22 37.68 161.34C37.72 163.42 37.74 165.4 37.74 167.28V167.94C37.74 168.46 37.74 169.04 37.74 169.68C37.74 170.36 37.7 170.9 37.62 171.3C37.42 172.1 37.1 172.6 36.66 172.8C36.26 173 35.74 173.1 35.1 173.1C34.54 173.1 34.08 173.02 33.72 172.86C33.36 172.7 33.08 172.48 32.88 172.2C32.68 171.92 32.54 171.6 32.46 171.24C32.38 170.92 32.34 170.6 32.34 170.28ZM10.08 152.46C10.08 152.82 10.14 153.06 10.26 153.18C10.38 153.26 10.58 153.3 10.86 153.3C11.34 153.34 11.76 153.36 12.12 153.36C12.52 153.32 12.92 153.3 13.32 153.3C14.6 153.3 15.76 153.28 16.8 153.24C17.84 153.2 18.84 153.14 19.8 153.06C20.8 152.94 21.78 152.82 22.74 152.7C23.7 152.54 24.72 152.36 25.8 152.16C26.36 152.08 26.98 152.14 27.66 152.34C28.34 152.54 28.74 152.96 28.86 153.6C29.02 154.4 28.94 155.1 28.62 155.7C28.3 156.3 27.74 156.66 26.94 156.78C25.42 157.02 24 157.24 22.68 157.44C21.4 157.6 20.08 157.74 18.72 157.86C17.4 157.98 15.98 158.08 14.46 158.16C12.98 158.2 11.26 158.22 9.3 158.22C7.74 158.22 6.56 157.88 5.76 157.2C4.96 156.52 4.54 155.3 4.5 153.54C4.5 153.06 4.5 152.36 4.5 151.44C4.54 150.52 4.56 149.48 4.56 148.32C4.6 147.16 4.62 145.92 4.62 144.6C4.62 143.28 4.62 141.96 4.62 140.64C4.62 139.2 4.62 137.78 4.62 136.38C4.62 134.98 4.62 133.68 4.62 132.48C4.62 131.24 4.62 130.16 4.62 129.24C4.66 128.28 4.68 127.54 4.68 127.02V123.9C4.68 123.1 4.96 122.5 5.52 122.1C6.08 121.7 6.74 121.5 7.5 121.5C8.18 121.5 8.8 121.7 9.36 122.1C9.96 122.5 10.26 123.12 10.26 123.96C10.26 124.8 10.24 125.96 10.2 127.44C10.2 128.92 10.2 130.56 10.2 132.36C10.2 134.16 10.18 136.06 10.14 138.06C10.14 140.06 10.14 142 10.14 143.88C10.14 144.44 10.14 145.12 10.14 145.92C10.14 146.68 10.12 147.46 10.08 148.26C10.08 149.06 10.08 149.84 10.08 150.6C10.08 151.32 10.08 151.94 10.08 152.46ZM51.3483 124.44C51.4283 123.68 51.6283 123.04 51.9483 122.52C52.2683 122 52.9483 121.68 53.9883 121.56H58.4883C60.2483 121.56 61.9883 121.54 63.7083 121.5C65.4683 121.46 67.0883 121.42 68.5683 121.38C69.6883 121.34 70.5683 121.52 71.2083 121.92C71.8483 122.28 72.1683 123.16 72.1683 124.56C72.1683 125.24 72.1683 126.36 72.1683 127.92C72.2083 129.48 72.2283 131.08 72.2283 132.72C72.2283 134 72.2283 135.3 72.2283 136.62C72.2683 137.9 72.2883 139.1 72.2883 140.22C72.3283 141.34 72.3483 142.34 72.3483 143.22C72.3883 144.06 72.4083 144.68 72.4083 145.08C72.4083 145.6 72.4083 146.1 72.4083 146.58C72.4083 147.02 72.3283 147.42 72.1683 147.78C72.0083 148.14 71.7283 148.46 71.3283 148.74C70.9683 148.98 70.4483 149.16 69.7683 149.28C67.4483 149.36 65.0483 149.42 62.5683 149.46C60.0883 149.46 57.6083 149.46 55.1283 149.46C54.8483 149.46 54.5483 149.46 54.2283 149.46C53.9083 149.42 53.5883 149.34 53.2683 149.22C52.9883 149.06 52.7083 148.82 52.4283 148.5C52.1883 148.14 51.9883 147.66 51.8283 147.06C51.7883 146.46 51.7283 145.46 51.6483 144.06C51.6083 142.62 51.5683 141.04 51.5283 139.32C51.4883 137.56 51.4483 135.76 51.4083 133.92C51.3683 132.08 51.3483 130.42 51.3483 128.94C51.3483 127.78 51.3283 126.8 51.2883 126C51.2883 125.16 51.3083 124.64 51.3483 124.44ZM57.7083 144.54C59.3083 144.5 60.9283 144.5 62.5683 144.54C64.2483 144.58 65.7683 144.56 67.1283 144.48C67.0883 143.12 67.0483 141.64 67.0083 140.04C66.9683 138.4 66.9283 136.8 66.8883 135.24C66.8883 133.68 66.8883 132.22 66.8883 130.86C66.8883 129.46 66.8883 128.3 66.8883 127.38C66.8883 126.78 66.7683 126.46 66.5283 126.42C66.2883 126.38 66.0083 126.36 65.6883 126.36C64.7683 126.32 63.9283 126.32 63.1683 126.36C62.4083 126.36 61.5883 126.36 60.7083 126.36C59.9083 126.36 59.2283 126.36 58.6683 126.36C58.1083 126.36 57.4283 126.38 56.6283 126.42L56.5683 130.56L56.6283 135.72C56.6283 137.08 56.6283 138.44 56.6283 139.8C56.6683 141.12 56.7283 142.38 56.8083 143.58C56.8083 143.74 56.8483 143.94 56.9283 144.18C57.0083 144.42 57.2683 144.54 57.7083 144.54ZM80.7483 141.24C80.7483 137.48 80.7283 133.88 80.6883 130.44C80.6883 127 80.6483 123.92 80.5683 121.2C80.4883 120.4 80.6883 119.74 81.1683 119.22C81.6883 118.7 82.3283 118.44 83.0883 118.44C84.9283 118.44 85.8883 119.28 85.9683 120.96C86.0083 121.76 86.0083 122.58 85.9683 123.42C85.9683 124.26 85.9683 125.02 85.9683 125.7V132.6C85.9683 133.24 85.9483 133.78 85.9083 134.22C85.9083 134.66 85.9283 135.28 85.9683 136.08C86.5283 136.12 87.0283 136.14 87.4683 136.14C87.9483 136.14 88.4883 136.14 89.0883 136.14C89.7683 136.14 90.4083 136.14 91.0083 136.14C91.6083 136.14 92.2283 136.12 92.8683 136.08C93.8283 136.08 94.5283 136.34 94.9683 136.86C95.4483 137.38 95.6883 137.98 95.6883 138.66C95.6883 139.26 95.4483 139.84 94.9683 140.4C94.4883 140.92 93.8083 141.2 92.9283 141.24C92.1283 141.28 91.2083 141.3 90.1683 141.3C89.1683 141.3 88.2683 141.3 87.4683 141.3H86.0283C86.0283 143.9 86.0083 146.54 85.9683 149.22C85.9283 151.86 85.8683 154.18 85.7883 156.18C85.7883 156.54 85.7483 156.92 85.6683 157.32C85.5883 157.68 85.4483 158.04 85.2483 158.4C85.0483 158.72 84.7683 158.98 84.4083 159.18C84.0483 159.38 83.6083 159.46 83.0883 159.42C81.9683 159.34 81.2283 159.06 80.8683 158.58C80.5483 158.06 80.4083 157.28 80.4483 156.24C80.5683 153.88 80.6483 151.44 80.6883 148.92C80.7283 146.36 80.7483 143.8 80.7483 141.24ZM63.4083 168.18C65.2083 168.26 66.8483 168.3 68.3283 168.3C69.8083 168.34 71.4283 168.34 73.1883 168.3C74.8683 168.26 76.5083 168.22 78.1083 168.18C79.7483 168.14 81.6883 168.08 83.9283 168C84.9283 168.04 85.6283 168.28 86.0283 168.72C86.4283 169.16 86.6483 169.68 86.6883 170.28C86.7683 171.12 86.5683 171.76 86.0883 172.2C85.6483 172.68 85.1083 172.96 84.4683 173.04C82.9483 173.12 81.4883 173.16 80.0883 173.16C78.7283 173.16 77.5283 173.16 76.4883 173.16H72.2883C70.8483 173.16 69.2483 173.16 67.4883 173.16C65.7283 173.16 63.6683 173.18 61.3083 173.22C59.6283 173.22 58.4483 172.86 57.7683 172.14C57.0883 171.46 56.7283 170.22 56.6883 168.42C56.7283 166.74 56.7483 164.92 56.7483 162.96C56.7883 160.96 56.8083 159.2 56.8083 157.68C56.8083 156.68 57.1083 155.96 57.7083 155.52C58.3083 155.08 59.0283 154.86 59.8683 154.86C60.5483 154.86 61.1483 155.1 61.6683 155.58C62.2283 156.02 62.4883 156.76 62.4483 157.8C62.4083 159 62.3683 159.94 62.3283 160.62C62.3283 161.26 62.3283 162.04 62.3283 162.96C62.3283 163.4 62.3283 163.78 62.3283 164.1C62.3283 164.38 62.3083 164.68 62.2683 165C62.2683 165.28 62.2683 165.58 62.2683 165.9C62.2683 166.22 62.2683 166.62 62.2683 167.1C62.2683 167.62 62.3683 167.92 62.5683 168C62.8083 168.08 63.0883 168.14 63.4083 168.18ZM113.797 121.74C115.797 121.78 117.477 122.22 118.837 123.06C120.237 123.86 121.337 124.92 122.137 126.24C122.977 127.56 123.557 129.06 123.877 130.74C124.197 132.38 124.337 134.06 124.297 135.78C124.217 137.42 123.957 139.02 123.517 140.58C123.077 142.1 122.397 143.46 121.477 144.66C120.597 145.86 119.477 146.82 118.117 147.54C116.757 148.26 115.157 148.62 113.317 148.62C111.277 148.62 109.517 148.3 108.037 147.66C106.557 146.98 105.337 146.06 104.377 144.9C103.417 143.74 102.717 142.38 102.277 140.82C101.837 139.22 101.617 137.48 101.617 135.6C101.617 133.64 101.837 131.8 102.277 130.08C102.757 128.36 103.477 126.88 104.437 125.64C105.437 124.36 106.697 123.38 108.217 122.7C109.777 122.02 111.637 121.7 113.797 121.74ZM131.497 168.18C131.497 165.94 131.497 163.54 131.497 160.98C131.537 158.38 131.557 155.92 131.557 153.6V142.08C131.557 137.56 131.537 133.54 131.497 130.02C131.457 126.5 131.377 123.78 131.257 121.86C131.177 120.9 131.377 120.18 131.857 119.7C132.377 119.18 132.957 118.88 133.597 118.8C134.277 118.68 134.957 118.82 135.637 119.22C136.317 119.62 136.657 120.28 136.657 121.2C136.657 121.52 136.637 121.88 136.597 122.28C136.597 122.64 136.597 123.22 136.597 124.02C136.597 124.82 136.597 125.94 136.597 127.38C136.597 128.78 136.617 130.64 136.657 132.96V151.5C136.657 154.18 136.657 156.88 136.657 159.6C136.697 162.28 136.717 164.9 136.717 167.46C136.717 168.26 136.717 168.96 136.717 169.56C136.757 170.16 136.737 170.76 136.657 171.36C136.577 172.16 136.277 172.68 135.757 172.92C135.237 173.2 134.697 173.34 134.137 173.34C133.417 173.34 132.797 173.1 132.277 172.62C131.757 172.14 131.497 171.56 131.497 170.88V168.18ZM106.777 135.6C106.777 136.76 106.877 137.86 107.077 138.9C107.277 139.94 107.617 140.86 108.097 141.66C108.617 142.42 109.277 143.02 110.077 143.46C110.917 143.9 111.937 144.12 113.137 144.12C114.097 144.12 114.937 143.9 115.657 143.46C116.417 143.02 117.037 142.44 117.517 141.72C118.037 140.96 118.417 140.08 118.657 139.08C118.937 138.04 119.097 136.92 119.137 135.72C119.217 132.84 118.817 130.6 117.937 129C117.097 127.36 115.637 126.48 113.557 126.36C112.237 126.28 111.137 126.52 110.257 127.08C109.377 127.6 108.677 128.32 108.157 129.24C107.637 130.16 107.277 131.18 107.077 132.3C106.877 133.42 106.777 134.52 106.777 135.6ZM113.497 157.5C114.857 157.46 116.077 157.4 117.157 157.32C118.237 157.24 119.257 157.16 120.217 157.08C121.217 156.96 122.197 156.84 123.157 156.72C124.157 156.6 125.257 156.44 126.457 156.24C127.097 156.16 127.737 156.24 128.377 156.48C129.017 156.68 129.377 157.24 129.457 158.16C129.537 158.96 129.357 159.56 128.917 159.96C128.477 160.32 127.937 160.56 127.297 160.68C124.737 161.24 122.277 161.62 119.917 161.82C117.557 162.02 115.037 162.16 112.357 162.24C111.757 162.28 110.997 162.3 110.077 162.3C109.197 162.3 108.377 162.3 107.617 162.3C106.417 162.3 105.217 162.3 104.017 162.3C102.817 162.3 101.817 162.28 101.017 162.24C100.417 162.2 99.8366 162.04 99.2766 161.76C98.7166 161.44 98.4366 160.8 98.4366 159.84C98.4366 159.08 98.6566 158.54 99.0966 158.22C99.5366 157.86 100.077 157.66 100.717 157.62C101.157 157.62 101.677 157.62 102.277 157.62C102.877 157.62 103.497 157.62 104.137 157.62C104.817 157.62 105.497 157.62 106.177 157.62C106.857 157.62 107.497 157.62 108.097 157.62C108.937 157.62 109.797 157.62 110.677 157.62C111.597 157.58 112.537 157.54 113.497 157.5Z" fill="white" fill-opacity="0.9"/>
<path d="M165.72 53.5239L168.302 55.0515L165.72 53.5239ZM163.023 33.3377L161.099 35.6397L161.122 35.6589L161.145 35.6776L163.023 33.3377ZM150.69 28.5202L147.741 29.0709L148.163 31.33L150.454 31.5109L150.69 28.5202ZM140.435 13.7772L141.963 11.1953L140.435 13.7772ZM123.922 11.4438L121.999 13.7459L123.114 14.6781L124.537 14.3801L123.922 11.4438ZM113.621 4.10993L114.639 1.28775L114.606 1.27611L114.574 1.26521L113.621 4.10993ZM93.4249 10.7516L96.0069 12.2792L93.4249 10.7516ZM73 54.4392L70.578 52.6689L69.813 53.7155L70.051 54.9898L73 54.4392ZM137.262 92.459L138.199 95.3088L139.431 94.9039L139.98 93.7295L137.262 92.459ZM151.559 61.8777L151.605 58.8781L149.664 58.8487L148.842 60.6071L151.559 61.8777ZM168.302 55.0515C170.9 50.6592 171.909 46.1047 171.276 41.8347C170.641 37.5508 168.387 33.7953 164.9 30.9977L161.145 35.6776C163.541 37.6 164.944 40.036 165.341 42.7144C165.74 45.4068 165.156 48.5854 163.138 51.9963L168.302 55.0515ZM164.946 31.0356C161.949 28.5307 158.41 27.1775 155.748 26.4447C154.396 26.0728 153.219 25.8468 152.371 25.7128C151.946 25.6457 151.601 25.6011 151.355 25.5728C151.231 25.5586 151.133 25.5484 151.06 25.5415C151.024 25.538 150.995 25.5354 150.973 25.5334C150.961 25.5324 150.952 25.5316 150.944 25.531C150.94 25.5307 150.937 25.5304 150.934 25.5302C150.933 25.53 150.931 25.5299 150.93 25.5298C150.929 25.5298 150.929 25.5297 150.928 25.5297C150.927 25.5296 150.927 25.5296 150.69 28.5202C150.454 31.5109 150.454 31.5109 150.453 31.5108C150.453 31.5108 150.452 31.5108 150.452 31.5107C150.451 31.5107 150.45 31.5106 150.449 31.5105C150.448 31.5105 150.447 31.5104 150.447 31.5104C150.446 31.5103 150.447 31.5104 150.45 31.5106C150.456 31.5111 150.467 31.5122 150.486 31.5139C150.522 31.5174 150.584 31.5237 150.669 31.5335C150.839 31.553 151.1 31.5864 151.435 31.6393C152.106 31.7453 153.059 31.9278 154.156 32.2296C156.389 32.8444 159.017 33.8999 161.099 35.6397L164.946 31.0356ZM150.69 28.5202C153.639 27.9696 153.639 27.9685 153.639 27.9674C153.639 27.967 153.639 27.9658 153.639 27.9649C153.638 27.9632 153.638 27.9613 153.638 27.9593C153.637 27.9552 153.636 27.9505 153.635 27.9453C153.633 27.9347 153.63 27.9218 153.627 27.9066C153.621 27.8761 153.613 27.8363 153.603 27.7876C153.582 27.6902 153.553 27.5571 153.513 27.3921C153.434 27.0622 153.314 26.6029 153.144 26.0436C152.804 24.9279 152.256 23.397 151.416 21.6935C149.747 18.3069 146.842 14.0823 141.963 11.1953L138.908 16.3592C142.462 18.4623 144.685 21.6092 146.035 24.3465C146.705 25.705 147.14 26.9242 147.405 27.7932C147.536 28.2261 147.625 28.5678 147.678 28.7908C147.705 28.9021 147.723 28.9835 147.733 29.0314C147.738 29.0554 147.741 29.0709 147.743 29.0777C147.743 29.081 147.744 29.0822 147.743 29.0811C147.743 29.0805 147.743 29.0794 147.743 29.0777C147.743 29.0768 147.742 29.0758 147.742 29.0747C147.742 29.0741 147.742 29.0732 147.742 29.0729C147.742 29.0719 147.741 29.0709 150.69 28.5202ZM141.963 11.1953C137.72 8.68522 133.003 8.0596 129.513 8.00689C127.743 7.98016 126.222 8.0999 125.136 8.22736C124.591 8.29127 124.152 8.35761 123.841 8.40969C123.685 8.43575 123.56 8.4583 123.471 8.47526C123.426 8.48375 123.39 8.49085 123.362 8.4963C123.349 8.49903 123.337 8.50134 123.328 8.50322C123.323 8.50415 123.319 8.50498 123.316 8.50569C123.314 8.50605 123.313 8.50637 123.311 8.50667C123.311 8.50682 123.31 8.50702 123.309 8.5071C123.308 8.50729 123.307 8.50748 123.922 11.4438C124.537 14.3801 124.536 14.3803 124.535 14.3805C124.535 14.3805 124.534 14.3807 124.534 14.3808C124.533 14.3809 124.532 14.3811 124.532 14.3812C124.531 14.3814 124.53 14.3816 124.53 14.3816C124.53 14.3816 124.532 14.3812 124.536 14.3804C124.544 14.3788 124.561 14.3755 124.586 14.3708C124.636 14.3613 124.718 14.3463 124.83 14.3276C125.054 14.2901 125.397 14.238 125.835 14.1865C126.716 14.0831 127.968 13.9842 129.422 14.0062C132.381 14.0509 135.921 14.592 138.908 16.3592L141.963 11.1953ZM123.922 11.4438C125.846 9.14172 125.846 9.14161 125.846 9.14147C125.845 9.14139 125.845 9.14122 125.845 9.14106C125.845 9.14074 125.844 9.14033 125.844 9.13982C125.842 9.1388 125.841 9.13739 125.839 9.13561C125.834 9.13204 125.828 9.12695 125.82 9.12039C125.805 9.10728 125.782 9.08827 125.752 9.06374C125.693 9.01468 125.607 8.94348 125.497 8.85303C125.278 8.67219 124.963 8.41408 124.577 8.10184C123.807 7.47842 122.748 6.63416 121.599 5.75612C120.456 4.88195 119.198 3.95431 118.034 3.17308C116.949 2.4446 115.695 1.66876 114.639 1.28775L112.604 6.93211C112.888 7.03446 113.592 7.41704 114.69 8.15429C115.709 8.8388 116.858 9.6842 117.955 10.5227C119.047 11.3572 120.06 12.1652 120.802 12.7658C121.173 13.0656 121.474 13.3125 121.682 13.4836C121.786 13.5692 121.866 13.6357 121.92 13.6804C121.947 13.7027 121.967 13.7196 121.98 13.7306C121.987 13.7361 121.992 13.7402 121.995 13.7428C121.996 13.744 121.997 13.7449 121.998 13.7455C121.998 13.7457 121.999 13.7459 121.999 13.746C121.999 13.746 121.999 13.746 121.999 13.746C121.999 13.7459 121.999 13.7459 123.922 11.4438ZM114.574 1.26521C106.435 -1.46039 96.394 -0.158407 90.843 9.22406L96.0069 12.2792C99.6892 6.05521 106.325 4.83037 112.668 6.95465L114.574 1.26521ZM90.843 9.22406C87.0587 15.6203 87.1003 23.0233 90.3131 28.6685L95.5277 25.7008C93.4234 22.0034 93.2734 16.8994 96.0069 12.2792L90.843 9.22406ZM90.4984 25.4144L70.578 52.6689L75.422 56.2094L95.3424 28.9549L90.4984 25.4144ZM73 54.4392C70.051 54.9898 70.0514 54.992 70.0518 54.9942C70.0519 54.995 70.0524 54.9973 70.0527 54.999C70.0533 55.0023 70.054 55.0058 70.0547 55.0095C70.0561 55.0169 70.0578 55.0252 70.0596 55.0343C70.0632 55.0526 70.0676 55.0743 70.0729 55.0993C70.0835 55.1493 70.0975 55.2127 70.1155 55.289C70.1516 55.4417 70.2038 55.6462 70.2769 55.8989C70.4231 56.4046 70.6526 57.103 71.0031 57.9669C71.7048 59.6961 72.8882 62.0802 74.8502 64.9008C78.7803 70.5508 85.7867 77.8837 98.172 85.2113L101.227 80.0474C89.5143 73.1176 83.1708 66.3554 79.7757 61.4746C78.0751 59.0299 77.102 57.0397 76.5629 55.711C76.293 55.0459 76.131 54.5445 76.0408 54.2325C75.9957 54.0764 75.9685 53.9676 75.9547 53.9092C75.9478 53.88 75.9443 53.8635 75.9435 53.8599C75.9431 53.8581 75.9434 53.8596 75.9444 53.8643C75.9449 53.8667 75.9455 53.8699 75.9463 53.8739C75.9467 53.876 75.9471 53.8782 75.9475 53.8806C75.9478 53.8819 75.9482 53.8838 75.9483 53.8844C75.9486 53.8865 75.949 53.8886 73 54.4392ZM98.172 85.2113C110.557 92.5389 120.358 95.1495 127.202 95.874C130.619 96.2357 133.278 96.1251 135.131 95.9076C136.057 95.7989 136.78 95.6638 137.294 95.5485C137.55 95.4909 137.755 95.4382 137.906 95.3963C137.981 95.3754 138.044 95.3571 138.093 95.3423C138.117 95.3349 138.138 95.3283 138.156 95.3227C138.165 95.3199 138.173 95.3174 138.18 95.315C138.184 95.3139 138.187 95.3128 138.19 95.3117C138.192 95.3112 138.194 95.3105 138.195 95.3102C138.197 95.3095 138.199 95.3088 137.262 92.459C136.325 89.6091 136.327 89.6085 136.329 89.6078C136.329 89.6076 136.331 89.607 136.332 89.6066C136.335 89.6058 136.337 89.6051 136.339 89.6045C136.343 89.6033 136.346 89.6023 136.348 89.6015C136.353 89.6001 136.354 89.5996 136.353 89.6002C136.349 89.6012 136.333 89.6061 136.304 89.6141C136.246 89.6301 136.138 89.6587 135.979 89.6943C135.662 89.7654 135.145 89.8648 134.432 89.9485C133.008 90.1157 130.795 90.2209 127.833 89.9074C121.921 89.2815 112.94 86.9772 101.227 80.0474L98.172 85.2113ZM139.98 93.7295L154.277 63.1483L148.842 60.6071L134.544 91.1884L139.98 93.7295ZM151.514 64.8774C158.009 64.9755 164.517 61.4477 168.302 55.0515L163.138 51.9963C160.404 56.6165 155.859 58.9423 151.605 58.8781L151.514 64.8774ZM157.075 60.8033C156.201 57.9335 156.203 57.933 156.204 57.9325C156.205 57.9323 156.206 57.9319 156.207 57.9316C156.209 57.931 156.211 57.9305 156.212 57.9301C156.215 57.9292 156.217 57.9286 156.218 57.9283C156.221 57.9276 156.22 57.9279 156.215 57.9291C156.207 57.9316 156.185 57.9376 156.151 57.9465C156.083 57.9641 155.966 57.9926 155.809 58.0254C155.492 58.0912 155.019 58.172 154.443 58.2183C153.27 58.3125 151.792 58.2538 150.353 57.7434C148.967 57.2518 147.536 56.3174 146.365 54.4909C145.167 52.6221 144.131 49.6426 143.911 44.9054L137.917 45.1844C138.171 50.6428 139.392 54.7311 141.314 57.7287C143.262 60.7685 145.812 62.4993 148.348 63.3984C150.83 64.2786 153.215 64.3362 154.924 64.199C155.788 64.1296 156.511 64.0077 157.03 63.8998C157.291 63.8457 157.502 63.7946 157.657 63.7543C157.735 63.7342 157.799 63.7167 157.847 63.7029C157.872 63.696 157.893 63.69 157.91 63.685C157.918 63.6825 157.926 63.6803 157.932 63.6783C157.936 63.6773 157.939 63.6764 157.941 63.6755C157.943 63.6751 157.945 63.6745 157.945 63.6743C157.947 63.6738 157.949 63.6732 157.075 60.8033ZM92.9204 27.1846C95.0401 29.3075 95.0387 29.3089 95.0374 29.3103C95.037 29.3107 95.0356 29.312 95.0348 29.3128C95.0331 29.3145 95.0315 29.3161 95.03 29.3176C95.027 29.3205 95.0244 29.3231 95.0221 29.3253C95.0176 29.3297 95.0145 29.3327 95.0129 29.3342C95.0098 29.3373 95.0124 29.3347 95.0207 29.3271C95.0374 29.3118 95.0768 29.2766 95.1383 29.2258C95.2617 29.1238 95.4712 28.9615 95.7624 28.7728C96.3467 28.3943 97.2409 27.9218 98.4164 27.6062C100.673 27.0005 104.312 26.8754 109.264 29.8051L112.319 24.6412C106.025 20.9174 100.728 20.773 96.8607 21.8114C94.9742 22.3179 93.5094 23.0833 92.5001 23.7372C91.9945 24.0647 91.5986 24.3672 91.3157 24.601C91.1741 24.7181 91.0602 24.8185 90.9743 24.8969C90.9314 24.9361 90.8955 24.9698 90.8665 24.9975C90.852 25.0114 90.8393 25.0237 90.8283 25.0344C90.8228 25.0398 90.8178 25.0447 90.8132 25.0493C90.8109 25.0516 90.8087 25.0537 90.8066 25.0558C90.8055 25.0569 90.804 25.0583 90.8035 25.0589C90.8021 25.0603 90.8006 25.0617 92.9204 27.1846Z" fill="white" fill-opacity="0.9"/>
</svg>
